<svg xmlns="http://www.w3.org/2000/svg" width="1200" height="675" viewBox="0 0 1200 675">
<rect width="1200" height="675" fill="#f7f9fc"/>
<rect x="55" y="55" width="1090" height="565" rx="34" fill="#fff" stroke="#d7dfeb" stroke-width="3"/>
<text x="95" y="140" font-family="Arial,sans-serif" font-size="66" font-weight="700" fill="#111827">출발 전 5분 안전점검</text>
<text x="95" y="198" font-family="Arial,sans-serif" font-size="44" font-weight="600" fill="#4b5563">6개 영역 확인</text>
<g font-family="Arial,sans-serif" font-size="50" font-weight="700" fill="#111827">
<g transform="translate(95 250)"><circle cx="36" cy="36" r="36" fill="#eef4ff"/><text x="21" y="53" font-size="48">1</text><text x="95" y="53">타이어 / 휠</text></g>
<g transform="translate(610 250)"><circle cx="36" cy="36" r="36" fill="#eef4ff"/><text x="21" y="53" font-size="48">2</text><text x="95" y="53">브레이크 / 조작계</text></g>
<g transform="translate(95 360)"><circle cx="36" cy="36" r="36" fill="#eef4ff"/><text x="21" y="53" font-size="48">3</text><text x="95" y="53">등화 / 전기</text></g>
<g transform="translate(610 360)"><circle cx="36" cy="36" r="36" fill="#eef4ff"/><text x="21" y="53" font-size="48">4</text><text x="95" y="53">유체 / 누유</text></g>
<g transform="translate(95 470)"><circle cx="36" cy="36" r="36" fill="#eef4ff"/><text x="21" y="53" font-size="48">5</text><text x="95" y="53">차체 / 고정물</text></g>
<g transform="translate(610 470)"><circle cx="36" cy="36" r="36" fill="#eef4ff"/><text x="21" y="53" font-size="48">6</text><text x="95" y="53">스탠드</text></g>
</g>
<rect x="95" y="565" width="1010" height="46" rx="23" fill="#111827"/>
<text x="600" y="598" text-anchor="middle" font-family="Arial,sans-serif" font-size="32" font-weight="700" fill="#fff">이상 발견 시 출발 전 점검·정비</text>
</svg>